<mxfile host="app.diagrams.net" modified="2023-10-10T09:26:38.995Z" agent="Mozilla/5.0 (Windows NT 10.0; Win64; x64) AppleWebKit/537.36 (KHTML, like Gecko) Chrome/117.0.0.0 Safari/537.36 Edg/117.0.2045.60" etag="VofzWppyE2C5fSo9gN_0" version="22.0.4" type="github">
  <diagram name="Page-1" id="NRW6LChGegnr6Z4dPT8M">
    <mxGraphModel dx="577" dy="400" grid="1" gridSize="10" guides="1" tooltips="1" connect="1" arrows="1" fold="1" page="1" pageScale="1" pageWidth="1100" pageHeight="850" background="none" math="0" shadow="0">
      <root>
        <mxCell id="0" />
        <mxCell id="1" parent="0" />
        <mxCell id="xK8xdHPVtCYg_8-kvttX-1" value="Student" style="swimlane;fontStyle=1;align=center;verticalAlign=middle;childLayout=stackLayout;horizontal=1;startSize=26;horizontalStack=0;resizeParent=1;resizeParentMax=0;resizeLast=0;collapsible=1;marginBottom=0;rounded=1;fontSize=14;html=1;labelBorderColor=none;labelBackgroundColor=none;" vertex="1" parent="1">
          <mxGeometry x="310" y="504" width="160" height="86" as="geometry" />
        </mxCell>
        <mxCell id="xK8xdHPVtCYg_8-kvttX-2" value="+ field: type" style="text;strokeColor=none;fillColor=none;align=center;verticalAlign=middle;spacingLeft=4;spacingRight=4;overflow=hidden;rotatable=0;points=[[0,0.5],[1,0.5]];portConstraint=eastwest;sketch=1;curveFitting=1;jiggle=2;rounded=1;fontSize=14;html=1;labelBorderColor=none;labelBackgroundColor=none;" vertex="1" parent="xK8xdHPVtCYg_8-kvttX-1">
          <mxGeometry y="26" width="160" height="26" as="geometry" />
        </mxCell>
        <mxCell id="xK8xdHPVtCYg_8-kvttX-3" value="" style="line;strokeWidth=1;fillColor=none;align=center;verticalAlign=middle;spacingTop=-1;spacingLeft=3;spacingRight=3;rotatable=0;labelPosition=right;points=[];portConstraint=eastwest;strokeColor=inherit;sketch=1;curveFitting=1;jiggle=2;rounded=1;fontSize=14;html=1;labelBorderColor=none;labelBackgroundColor=none;" vertex="1" parent="xK8xdHPVtCYg_8-kvttX-1">
          <mxGeometry y="52" width="160" height="8" as="geometry" />
        </mxCell>
        <mxCell id="xK8xdHPVtCYg_8-kvttX-4" value="+ method(type): type" style="text;strokeColor=none;fillColor=none;align=center;verticalAlign=middle;spacingLeft=4;spacingRight=4;overflow=hidden;rotatable=0;points=[[0,0.5],[1,0.5]];portConstraint=eastwest;sketch=1;curveFitting=1;jiggle=2;rounded=1;fontSize=14;html=1;labelBorderColor=none;labelBackgroundColor=none;" vertex="1" parent="xK8xdHPVtCYg_8-kvttX-1">
          <mxGeometry y="60" width="160" height="26" as="geometry" />
        </mxCell>
        <mxCell id="xK8xdHPVtCYg_8-kvttX-5" value="Course" style="swimlane;fontStyle=1;align=center;verticalAlign=middle;childLayout=stackLayout;horizontal=1;startSize=26;horizontalStack=0;resizeParent=1;resizeParentMax=0;resizeLast=0;collapsible=1;marginBottom=0;rounded=1;fontSize=14;html=1;labelBorderColor=none;labelBackgroundColor=none;" vertex="1" parent="1">
          <mxGeometry x="570" y="504" width="160" height="86" as="geometry" />
        </mxCell>
        <mxCell id="xK8xdHPVtCYg_8-kvttX-6" value="+ field: type" style="text;strokeColor=none;fillColor=none;align=center;verticalAlign=middle;spacingLeft=4;spacingRight=4;overflow=hidden;rotatable=0;points=[[0,0.5],[1,0.5]];portConstraint=eastwest;sketch=1;curveFitting=1;jiggle=2;rounded=1;fontSize=14;html=1;labelBorderColor=none;labelBackgroundColor=none;" vertex="1" parent="xK8xdHPVtCYg_8-kvttX-5">
          <mxGeometry y="26" width="160" height="26" as="geometry" />
        </mxCell>
        <mxCell id="xK8xdHPVtCYg_8-kvttX-7" value="" style="line;strokeWidth=1;fillColor=none;align=center;verticalAlign=middle;spacingTop=-1;spacingLeft=3;spacingRight=3;rotatable=0;labelPosition=right;points=[];portConstraint=eastwest;strokeColor=inherit;sketch=1;curveFitting=1;jiggle=2;rounded=1;fontSize=14;html=1;labelBorderColor=none;labelBackgroundColor=none;" vertex="1" parent="xK8xdHPVtCYg_8-kvttX-5">
          <mxGeometry y="52" width="160" height="8" as="geometry" />
        </mxCell>
        <mxCell id="xK8xdHPVtCYg_8-kvttX-8" value="+ method(type): type" style="text;strokeColor=none;fillColor=none;align=center;verticalAlign=middle;spacingLeft=4;spacingRight=4;overflow=hidden;rotatable=0;points=[[0,0.5],[1,0.5]];portConstraint=eastwest;sketch=1;curveFitting=1;jiggle=2;rounded=1;fontSize=14;html=1;labelBorderColor=none;labelBackgroundColor=none;" vertex="1" parent="xK8xdHPVtCYg_8-kvttX-5">
          <mxGeometry y="60" width="160" height="26" as="geometry" />
        </mxCell>
        <mxCell id="xK8xdHPVtCYg_8-kvttX-9" value="* ... *" style="edgeStyle=orthogonalEdgeStyle;rounded=1;orthogonalLoop=1;jettySize=auto;entryX=0;entryY=0.5;entryDx=0;entryDy=0;startArrow=classicThin;startFill=1;verticalAlign=middle;fontSize=14;html=1;labelBorderColor=none;labelBackgroundColor=none;align=center;" edge="1" parent="1" source="xK8xdHPVtCYg_8-kvttX-2" target="xK8xdHPVtCYg_8-kvttX-6">
          <mxGeometry relative="1" as="geometry" />
        </mxCell>
        <mxCell id="xK8xdHPVtCYg_8-kvttX-32" value="" style="edgeStyle=orthogonalEdgeStyle;rounded=1;hachureGap=4;orthogonalLoop=1;jettySize=auto;entryX=0;entryY=0.5;entryDx=0;entryDy=0;fontFamily=Architects Daughter;fontSource=https%3A%2F%2Ffonts.googleapis.com%2Fcss%3Ffamily%3DArchitects%2BDaughter;fontSize=14;verticalAlign=middle;html=1;labelBorderColor=none;labelBackgroundColor=none;align=center;" edge="1" parent="1" source="xK8xdHPVtCYg_8-kvttX-6" target="xK8xdHPVtCYg_8-kvttX-23">
          <mxGeometry relative="1" as="geometry" />
        </mxCell>
        <mxCell id="xK8xdHPVtCYg_8-kvttX-33" value="1 ... *" style="edgeLabel;align=center;verticalAlign=middle;resizable=0;points=[];fontSize=14;fontFamily=Architects Daughter;html=1;labelBorderColor=none;labelBackgroundColor=none;" vertex="1" connectable="0" parent="xK8xdHPVtCYg_8-kvttX-32">
          <mxGeometry x="0.0113" relative="1" as="geometry">
            <mxPoint as="offset" />
          </mxGeometry>
        </mxCell>
        <mxCell id="xK8xdHPVtCYg_8-kvttX-34" value="RegistrarsOffice" style="swimlane;fontStyle=0;align=center;verticalAlign=middle;childLayout=stackLayout;horizontal=1;startSize=26;horizontalStack=0;resizeParent=1;resizeParentMax=0;resizeLast=0;collapsible=1;marginBottom=0;rounded=1;hachureGap=4;fontFamily=Helvetica;fontSize=14;html=1;labelBorderColor=none;labelBackgroundColor=none;" vertex="1" parent="1">
          <mxGeometry x="310" y="674" width="160" height="86" as="geometry" />
        </mxCell>
        <mxCell id="xK8xdHPVtCYg_8-kvttX-35" value="+ field: type" style="text;strokeColor=none;fillColor=none;align=center;verticalAlign=middle;spacingLeft=4;spacingRight=4;overflow=hidden;rotatable=0;points=[[0,0.5],[1,0.5]];portConstraint=eastwest;fontSize=14;fontFamily=Helvetica;fontStyle=0;html=1;labelBorderColor=none;labelBackgroundColor=none;" vertex="1" parent="xK8xdHPVtCYg_8-kvttX-34">
          <mxGeometry y="26" width="160" height="26" as="geometry" />
        </mxCell>
        <mxCell id="xK8xdHPVtCYg_8-kvttX-36" value="" style="line;strokeWidth=1;fillColor=none;align=center;verticalAlign=middle;spacingTop=-1;spacingLeft=3;spacingRight=3;rotatable=0;labelPosition=right;points=[];portConstraint=eastwest;strokeColor=inherit;rounded=1;hachureGap=4;fontFamily=Helvetica;fontSize=14;fontStyle=0;html=1;labelBorderColor=none;labelBackgroundColor=none;" vertex="1" parent="xK8xdHPVtCYg_8-kvttX-34">
          <mxGeometry y="52" width="160" height="8" as="geometry" />
        </mxCell>
        <mxCell id="xK8xdHPVtCYg_8-kvttX-37" value="+ method(type): type" style="text;strokeColor=none;fillColor=none;align=center;verticalAlign=middle;spacingLeft=4;spacingRight=4;overflow=hidden;rotatable=0;points=[[0,0.5],[1,0.5]];portConstraint=eastwest;fontSize=14;fontFamily=Helvetica;fontStyle=0;html=1;labelBorderColor=none;labelBackgroundColor=none;" vertex="1" parent="xK8xdHPVtCYg_8-kvttX-34">
          <mxGeometry y="60" width="160" height="26" as="geometry" />
        </mxCell>
        <mxCell id="xK8xdHPVtCYg_8-kvttX-38" value="" style="edgeStyle=orthogonalEdgeStyle;rounded=1;hachureGap=4;orthogonalLoop=1;jettySize=auto;entryX=1;entryY=0.75;entryDx=0;entryDy=0;fontFamily=Architects Daughter;fontSource=https%3A%2F%2Ffonts.googleapis.com%2Fcss%3Ffamily%3DArchitects%2BDaughter;fontSize=14;verticalAlign=middle;html=1;labelBorderColor=none;labelBackgroundColor=none;align=center;" edge="1" parent="1" source="xK8xdHPVtCYg_8-kvttX-35" target="xK8xdHPVtCYg_8-kvttX-1">
          <mxGeometry relative="1" as="geometry" />
        </mxCell>
        <mxCell id="xK8xdHPVtCYg_8-kvttX-22" value="professor" style="swimlane;fontStyle=0;align=center;verticalAlign=middle;childLayout=stackLayout;horizontal=1;startSize=36;horizontalStack=0;resizeParent=1;resizeParentMax=0;resizeLast=0;collapsible=1;marginBottom=0;rounded=1;hachureGap=4;fontFamily=Helvetica;fontSize=14;html=1;labelBorderColor=none;labelBackgroundColor=none;" vertex="1" parent="1">
          <mxGeometry x="600" y="324" width="160" height="96" as="geometry" />
        </mxCell>
        <mxCell id="xK8xdHPVtCYg_8-kvttX-23" value="+ field: type" style="text;strokeColor=none;fillColor=none;align=center;verticalAlign=middle;spacingLeft=4;spacingRight=4;overflow=hidden;rotatable=0;points=[[0,0.5],[1,0.5]];portConstraint=eastwest;fontSize=14;fontFamily=Helvetica;html=1;labelBorderColor=none;labelBackgroundColor=none;" vertex="1" parent="xK8xdHPVtCYg_8-kvttX-22">
          <mxGeometry y="36" width="160" height="26" as="geometry" />
        </mxCell>
        <mxCell id="xK8xdHPVtCYg_8-kvttX-24" value="" style="line;strokeWidth=1;fillColor=none;align=center;verticalAlign=middle;spacingTop=-1;spacingLeft=3;spacingRight=3;rotatable=0;labelPosition=right;points=[];portConstraint=eastwest;strokeColor=inherit;rounded=1;sketch=1;hachureGap=4;jiggle=2;curveFitting=1;fontFamily=Helvetica;fontSize=14;html=1;labelBorderColor=none;labelBackgroundColor=none;" vertex="1" parent="xK8xdHPVtCYg_8-kvttX-22">
          <mxGeometry y="62" width="160" height="8" as="geometry" />
        </mxCell>
        <mxCell id="xK8xdHPVtCYg_8-kvttX-25" value="+ method(type): type" style="text;strokeColor=none;fillColor=none;align=center;verticalAlign=middle;spacingLeft=4;spacingRight=4;overflow=hidden;rotatable=0;points=[[0,0.5],[1,0.5]];portConstraint=eastwest;fontSize=14;fontFamily=Helvetica;html=1;labelBorderColor=none;labelBackgroundColor=none;" vertex="1" parent="xK8xdHPVtCYg_8-kvttX-22">
          <mxGeometry y="70" width="160" height="26" as="geometry" />
        </mxCell>
        <mxCell id="xK8xdHPVtCYg_8-kvttX-26" value="OfficeRoom" style="swimlane;fontStyle=0;align=center;verticalAlign=middle;childLayout=stackLayout;horizontal=1;startSize=26;horizontalStack=0;resizeParent=1;resizeParentMax=0;resizeLast=0;collapsible=1;marginBottom=0;rounded=1;hachureGap=4;fontFamily=Helvetica;fontSize=14;html=1;labelBorderColor=none;labelBackgroundColor=none;" vertex="1" parent="1">
          <mxGeometry x="850" y="324" width="160" height="86" as="geometry" />
        </mxCell>
        <mxCell id="xK8xdHPVtCYg_8-kvttX-27" value="+ field: type" style="text;strokeColor=none;fillColor=none;align=center;verticalAlign=middle;spacingLeft=4;spacingRight=4;overflow=hidden;rotatable=0;points=[[0,0.5],[1,0.5]];portConstraint=eastwest;fontSize=14;fontFamily=Helvetica;html=1;labelBorderColor=none;labelBackgroundColor=none;" vertex="1" parent="xK8xdHPVtCYg_8-kvttX-26">
          <mxGeometry y="26" width="160" height="26" as="geometry" />
        </mxCell>
        <mxCell id="xK8xdHPVtCYg_8-kvttX-28" value="" style="line;strokeWidth=1;fillColor=none;align=center;verticalAlign=middle;spacingTop=-1;spacingLeft=3;spacingRight=3;rotatable=0;labelPosition=right;points=[];portConstraint=eastwest;strokeColor=inherit;rounded=1;sketch=1;hachureGap=4;jiggle=2;curveFitting=1;fontFamily=Helvetica;fontSize=14;html=1;labelBorderColor=none;labelBackgroundColor=none;" vertex="1" parent="xK8xdHPVtCYg_8-kvttX-26">
          <mxGeometry y="52" width="160" height="8" as="geometry" />
        </mxCell>
        <mxCell id="xK8xdHPVtCYg_8-kvttX-29" value="+ method(type): type" style="text;strokeColor=none;fillColor=none;align=center;verticalAlign=middle;spacingLeft=4;spacingRight=4;overflow=hidden;rotatable=0;points=[[0,0.5],[1,0.5]];portConstraint=eastwest;fontSize=14;fontFamily=Helvetica;html=1;labelBorderColor=none;labelBackgroundColor=none;" vertex="1" parent="xK8xdHPVtCYg_8-kvttX-26">
          <mxGeometry y="60" width="160" height="26" as="geometry" />
        </mxCell>
        <mxCell id="xK8xdHPVtCYg_8-kvttX-30" value="" style="edgeStyle=orthogonalEdgeStyle;rounded=1;hachureGap=4;orthogonalLoop=1;jettySize=auto;entryX=0;entryY=0.5;entryDx=0;entryDy=0;fontFamily=Helvetica;fontSize=14;verticalAlign=middle;html=1;labelBorderColor=none;labelBackgroundColor=none;align=center;" edge="1" source="xK8xdHPVtCYg_8-kvttX-23" target="xK8xdHPVtCYg_8-kvttX-27" parent="1">
          <mxGeometry relative="1" as="geometry" />
        </mxCell>
        <mxCell id="xK8xdHPVtCYg_8-kvttX-31" value="1 ... 1" style="edgeLabel;align=center;verticalAlign=middle;resizable=0;points=[];fontSize=14;fontFamily=Helvetica;html=1;labelBorderColor=none;labelBackgroundColor=none;" vertex="1" connectable="0" parent="xK8xdHPVtCYg_8-kvttX-30">
          <mxGeometry x="0.0026" y="1" relative="1" as="geometry">
            <mxPoint as="offset" />
          </mxGeometry>
        </mxCell>
        <mxCell id="xK8xdHPVtCYg_8-kvttX-39" value="Deportment" style="swimlane;fontStyle=1;align=center;verticalAlign=middle;childLayout=stackLayout;horizontal=1;startSize=26;horizontalStack=0;resizeParent=1;resizeParentMax=0;resizeLast=0;collapsible=1;marginBottom=0;rounded=1;hachureGap=4;fontFamily=Architects Daughter;fontSource=https%3A%2F%2Ffonts.googleapis.com%2Fcss%3Ffamily%3DArchitects%2BDaughter;fontSize=14;html=1;labelBorderColor=none;labelBackgroundColor=none;" vertex="1" parent="1">
          <mxGeometry x="600" y="144" width="160" height="86" as="geometry" />
        </mxCell>
        <mxCell id="xK8xdHPVtCYg_8-kvttX-40" value="+ field: type" style="text;strokeColor=none;fillColor=none;align=center;verticalAlign=middle;spacingLeft=4;spacingRight=4;overflow=hidden;rotatable=0;points=[[0,0.5],[1,0.5]];portConstraint=eastwest;fontSize=14;fontFamily=Architects Daughter;html=1;labelBorderColor=none;labelBackgroundColor=none;" vertex="1" parent="xK8xdHPVtCYg_8-kvttX-39">
          <mxGeometry y="26" width="160" height="26" as="geometry" />
        </mxCell>
        <mxCell id="xK8xdHPVtCYg_8-kvttX-41" value="" style="line;strokeWidth=1;fillColor=none;align=center;verticalAlign=middle;spacingTop=-1;spacingLeft=3;spacingRight=3;rotatable=0;labelPosition=right;points=[];portConstraint=eastwest;strokeColor=inherit;rounded=1;sketch=1;hachureGap=4;jiggle=2;curveFitting=1;fontFamily=Architects Daughter;fontSource=https%3A%2F%2Ffonts.googleapis.com%2Fcss%3Ffamily%3DArchitects%2BDaughter;fontSize=14;html=1;labelBorderColor=none;labelBackgroundColor=none;" vertex="1" parent="xK8xdHPVtCYg_8-kvttX-39">
          <mxGeometry y="52" width="160" height="8" as="geometry" />
        </mxCell>
        <mxCell id="xK8xdHPVtCYg_8-kvttX-42" value="+ method(type): type" style="text;strokeColor=none;fillColor=none;align=center;verticalAlign=middle;spacingLeft=4;spacingRight=4;overflow=hidden;rotatable=0;points=[[0,0.5],[1,0.5]];portConstraint=eastwest;fontSize=14;fontFamily=Architects Daughter;html=1;labelBorderColor=none;labelBackgroundColor=none;" vertex="1" parent="xK8xdHPVtCYg_8-kvttX-39">
          <mxGeometry y="60" width="160" height="26" as="geometry" />
        </mxCell>
        <mxCell id="xK8xdHPVtCYg_8-kvttX-49" value="Classname" style="swimlane;fontStyle=1;align=center;verticalAlign=middle;childLayout=stackLayout;horizontal=1;startSize=26;horizontalStack=0;resizeParent=1;resizeParentMax=0;resizeLast=0;collapsible=1;marginBottom=0;rounded=1;hachureGap=4;fontFamily=Architects Daughter;fontSource=https%3A%2F%2Ffonts.googleapis.com%2Fcss%3Ffamily%3DArchitects%2BDaughter;fontSize=14;html=1;labelBorderColor=none;labelBackgroundColor=none;" vertex="1" parent="1">
          <mxGeometry x="850" y="140" width="160" height="86" as="geometry" />
        </mxCell>
        <mxCell id="xK8xdHPVtCYg_8-kvttX-50" value="+ field: type" style="text;strokeColor=none;fillColor=none;align=center;verticalAlign=middle;spacingLeft=4;spacingRight=4;overflow=hidden;rotatable=0;points=[[0,0.5],[1,0.5]];portConstraint=eastwest;fontSize=14;fontFamily=Architects Daughter;html=1;labelBorderColor=none;labelBackgroundColor=none;" vertex="1" parent="xK8xdHPVtCYg_8-kvttX-49">
          <mxGeometry y="26" width="160" height="26" as="geometry" />
        </mxCell>
        <mxCell id="xK8xdHPVtCYg_8-kvttX-51" value="" style="line;strokeWidth=1;fillColor=none;align=center;verticalAlign=middle;spacingTop=-1;spacingLeft=3;spacingRight=3;rotatable=0;labelPosition=right;points=[];portConstraint=eastwest;strokeColor=inherit;rounded=1;sketch=1;hachureGap=4;jiggle=2;curveFitting=1;fontFamily=Architects Daughter;fontSource=https%3A%2F%2Ffonts.googleapis.com%2Fcss%3Ffamily%3DArchitects%2BDaughter;fontSize=14;html=1;labelBorderColor=none;labelBackgroundColor=none;" vertex="1" parent="xK8xdHPVtCYg_8-kvttX-49">
          <mxGeometry y="52" width="160" height="8" as="geometry" />
        </mxCell>
        <mxCell id="xK8xdHPVtCYg_8-kvttX-52" value="+ method(type): type" style="text;strokeColor=none;fillColor=none;align=center;verticalAlign=middle;spacingLeft=4;spacingRight=4;overflow=hidden;rotatable=0;points=[[0,0.5],[1,0.5]];portConstraint=eastwest;fontSize=14;fontFamily=Architects Daughter;html=1;labelBorderColor=none;labelBackgroundColor=none;" vertex="1" parent="xK8xdHPVtCYg_8-kvttX-49">
          <mxGeometry y="60" width="160" height="26" as="geometry" />
        </mxCell>
        <mxCell id="xK8xdHPVtCYg_8-kvttX-59" value="TaskForce" style="swimlane;fontStyle=1;align=center;verticalAlign=middle;childLayout=stackLayout;horizontal=1;startSize=26;horizontalStack=0;resizeParent=1;resizeParentMax=0;resizeLast=0;collapsible=1;marginBottom=0;rounded=1;hachureGap=4;fontFamily=Architects Daughter;fontSource=https%3A%2F%2Ffonts.googleapis.com%2Fcss%3Ffamily%3DArchitects%2BDaughter;fontSize=14;html=1;labelBorderColor=none;labelBackgroundColor=none;" vertex="1" parent="1">
          <mxGeometry x="580" y="654" width="160" height="86" as="geometry" />
        </mxCell>
        <mxCell id="xK8xdHPVtCYg_8-kvttX-60" value="+ field: type" style="text;strokeColor=none;fillColor=none;align=center;verticalAlign=middle;spacingLeft=4;spacingRight=4;overflow=hidden;rotatable=0;points=[[0,0.5],[1,0.5]];portConstraint=eastwest;fontSize=14;fontFamily=Architects Daughter;html=1;labelBorderColor=none;labelBackgroundColor=none;" vertex="1" parent="xK8xdHPVtCYg_8-kvttX-59">
          <mxGeometry y="26" width="160" height="26" as="geometry" />
        </mxCell>
        <mxCell id="xK8xdHPVtCYg_8-kvttX-61" value="" style="line;strokeWidth=1;fillColor=none;align=center;verticalAlign=middle;spacingTop=-1;spacingLeft=3;spacingRight=3;rotatable=0;labelPosition=right;points=[];portConstraint=eastwest;strokeColor=inherit;rounded=1;sketch=1;hachureGap=4;jiggle=2;curveFitting=1;fontFamily=Architects Daughter;fontSource=https%3A%2F%2Ffonts.googleapis.com%2Fcss%3Ffamily%3DArchitects%2BDaughter;fontSize=14;html=1;labelBorderColor=none;labelBackgroundColor=none;" vertex="1" parent="xK8xdHPVtCYg_8-kvttX-59">
          <mxGeometry y="52" width="160" height="8" as="geometry" />
        </mxCell>
        <mxCell id="xK8xdHPVtCYg_8-kvttX-62" value="+ method(type): type" style="text;strokeColor=none;fillColor=none;align=center;verticalAlign=middle;spacingLeft=4;spacingRight=4;overflow=hidden;rotatable=0;points=[[0,0.5],[1,0.5]];portConstraint=eastwest;fontSize=14;fontFamily=Architects Daughter;html=1;labelBorderColor=none;labelBackgroundColor=none;" vertex="1" parent="xK8xdHPVtCYg_8-kvttX-59">
          <mxGeometry y="60" width="160" height="26" as="geometry" />
        </mxCell>
        <mxCell id="xK8xdHPVtCYg_8-kvttX-63" value="Person" style="swimlane;fontStyle=1;align=center;verticalAlign=middle;childLayout=stackLayout;horizontal=1;startSize=26;horizontalStack=0;resizeParent=1;resizeParentMax=0;resizeLast=0;collapsible=1;marginBottom=0;rounded=1;hachureGap=4;fontFamily=Architects Daughter;fontSource=https%3A%2F%2Ffonts.googleapis.com%2Fcss%3Ffamily%3DArchitects%2BDaughter;fontSize=14;html=1;labelBorderColor=none;labelBackgroundColor=none;" vertex="1" parent="1">
          <mxGeometry x="310" y="144" width="160" height="86" as="geometry" />
        </mxCell>
        <mxCell id="xK8xdHPVtCYg_8-kvttX-64" value="+ field: type" style="text;strokeColor=none;fillColor=none;align=center;verticalAlign=middle;spacingLeft=4;spacingRight=4;overflow=hidden;rotatable=0;points=[[0,0.5],[1,0.5]];portConstraint=eastwest;fontSize=14;fontFamily=Architects Daughter;html=1;labelBorderColor=none;labelBackgroundColor=none;" vertex="1" parent="xK8xdHPVtCYg_8-kvttX-63">
          <mxGeometry y="26" width="160" height="26" as="geometry" />
        </mxCell>
        <mxCell id="xK8xdHPVtCYg_8-kvttX-65" value="" style="line;strokeWidth=1;fillColor=none;align=center;verticalAlign=middle;spacingTop=-1;spacingLeft=3;spacingRight=3;rotatable=0;labelPosition=right;points=[];portConstraint=eastwest;strokeColor=inherit;rounded=1;sketch=1;hachureGap=4;jiggle=2;curveFitting=1;fontFamily=Architects Daughter;fontSource=https%3A%2F%2Ffonts.googleapis.com%2Fcss%3Ffamily%3DArchitects%2BDaughter;fontSize=14;html=1;labelBorderColor=none;labelBackgroundColor=none;" vertex="1" parent="xK8xdHPVtCYg_8-kvttX-63">
          <mxGeometry y="52" width="160" height="8" as="geometry" />
        </mxCell>
        <mxCell id="xK8xdHPVtCYg_8-kvttX-66" value="+ method(type): type" style="text;strokeColor=none;fillColor=none;align=center;verticalAlign=middle;spacingLeft=4;spacingRight=4;overflow=hidden;rotatable=0;points=[[0,0.5],[1,0.5]];portConstraint=eastwest;fontSize=14;fontFamily=Architects Daughter;html=1;labelBorderColor=none;labelBackgroundColor=none;" vertex="1" parent="xK8xdHPVtCYg_8-kvttX-63">
          <mxGeometry y="60" width="160" height="26" as="geometry" />
        </mxCell>
        <mxCell id="xK8xdHPVtCYg_8-kvttX-68" value="" style="edgeStyle=orthogonalEdgeStyle;rounded=1;hachureGap=4;orthogonalLoop=1;jettySize=auto;entryX=1;entryY=0.5;entryDx=0;entryDy=0;fontFamily=Architects Daughter;fontSource=https%3A%2F%2Ffonts.googleapis.com%2Fcss%3Ffamily%3DArchitects%2BDaughter;fontSize=14;verticalAlign=middle;html=1;labelBorderColor=none;labelBackgroundColor=none;align=center;" edge="1" parent="1" source="xK8xdHPVtCYg_8-kvttX-23" target="xK8xdHPVtCYg_8-kvttX-64">
          <mxGeometry relative="1" as="geometry" />
        </mxCell>
        <mxCell id="xK8xdHPVtCYg_8-kvttX-73" value="&amp;lt;&amp;lt; interface&amp;gt;&amp;gt;&amp;nbsp;&lt;br&gt;IdCardHolder&lt;br&gt;" style="swimlane;fontStyle=1;align=center;verticalAlign=middle;childLayout=stackLayout;horizontal=1;startSize=50;horizontalStack=0;resizeParent=1;resizeParentMax=0;resizeLast=0;collapsible=1;marginBottom=0;rounded=1;hachureGap=4;fontFamily=Architects Daughter;fontSource=https%3A%2F%2Ffonts.googleapis.com%2Fcss%3Ffamily%3DArchitects%2BDaughter;fontSize=14;html=1;labelBorderColor=none;labelBackgroundColor=none;" vertex="1" parent="1">
          <mxGeometry x="300" y="294" width="160" height="110" as="geometry" />
        </mxCell>
        <mxCell id="xK8xdHPVtCYg_8-kvttX-74" value="+ field: type" style="text;strokeColor=none;fillColor=none;align=center;verticalAlign=middle;spacingLeft=4;spacingRight=4;overflow=hidden;rotatable=0;points=[[0,0.5],[1,0.5]];portConstraint=eastwest;fontSize=14;fontFamily=Architects Daughter;html=1;labelBorderColor=none;labelBackgroundColor=none;" vertex="1" parent="xK8xdHPVtCYg_8-kvttX-73">
          <mxGeometry y="50" width="160" height="26" as="geometry" />
        </mxCell>
        <mxCell id="xK8xdHPVtCYg_8-kvttX-75" value="" style="line;strokeWidth=1;fillColor=none;align=center;verticalAlign=middle;spacingTop=-1;spacingLeft=3;spacingRight=3;rotatable=0;labelPosition=right;points=[];portConstraint=eastwest;strokeColor=inherit;rounded=1;hachureGap=4;fontFamily=Architects Daughter;fontSource=https%3A%2F%2Ffonts.googleapis.com%2Fcss%3Ffamily%3DArchitects%2BDaughter;fontSize=14;html=1;labelBorderColor=none;labelBackgroundColor=none;" vertex="1" parent="xK8xdHPVtCYg_8-kvttX-73">
          <mxGeometry y="76" width="160" height="8" as="geometry" />
        </mxCell>
        <mxCell id="xK8xdHPVtCYg_8-kvttX-76" value="+ method(type): type" style="text;strokeColor=none;fillColor=none;align=center;verticalAlign=middle;spacingLeft=4;spacingRight=4;overflow=hidden;rotatable=0;points=[[0,0.5],[1,0.5]];portConstraint=eastwest;fontSize=14;fontFamily=Architects Daughter;html=1;labelBorderColor=none;labelBackgroundColor=none;" vertex="1" parent="xK8xdHPVtCYg_8-kvttX-73">
          <mxGeometry y="84" width="160" height="26" as="geometry" />
        </mxCell>
        <mxCell id="xK8xdHPVtCYg_8-kvttX-81" value="Classname" style="swimlane;fontStyle=1;align=center;verticalAlign=top;childLayout=stackLayout;horizontal=1;startSize=26;horizontalStack=0;resizeParent=1;resizeParentMax=0;resizeLast=0;collapsible=1;marginBottom=0;rounded=1;hachureGap=4;fontFamily=Architects Daughter;fontSource=https%3A%2F%2Ffonts.googleapis.com%2Fcss%3Ffamily%3DArchitects%2BDaughter;fontSize=14;html=1;labelBorderColor=none;labelBackgroundColor=none;" vertex="1" parent="1">
          <mxGeometry x="30" y="502" width="160" height="86" as="geometry" />
        </mxCell>
        <mxCell id="xK8xdHPVtCYg_8-kvttX-82" value="+ field: type" style="text;strokeColor=none;fillColor=none;align=center;verticalAlign=top;spacingLeft=4;spacingRight=4;overflow=hidden;rotatable=0;points=[[0,0.5],[1,0.5]];portConstraint=eastwest;fontSize=14;fontFamily=Architects Daughter;html=1;labelBorderColor=none;labelBackgroundColor=none;" vertex="1" parent="xK8xdHPVtCYg_8-kvttX-81">
          <mxGeometry y="26" width="160" height="26" as="geometry" />
        </mxCell>
        <mxCell id="xK8xdHPVtCYg_8-kvttX-83" value="" style="line;strokeWidth=1;fillColor=none;align=center;verticalAlign=middle;spacingTop=-1;spacingLeft=3;spacingRight=3;rotatable=0;labelPosition=right;points=[];portConstraint=eastwest;strokeColor=inherit;rounded=1;sketch=1;hachureGap=4;jiggle=2;curveFitting=1;fontFamily=Architects Daughter;fontSource=https%3A%2F%2Ffonts.googleapis.com%2Fcss%3Ffamily%3DArchitects%2BDaughter;fontSize=14;html=1;labelBorderColor=none;labelBackgroundColor=none;" vertex="1" parent="xK8xdHPVtCYg_8-kvttX-81">
          <mxGeometry y="52" width="160" height="8" as="geometry" />
        </mxCell>
        <mxCell id="xK8xdHPVtCYg_8-kvttX-84" value="+ method(type): type" style="text;strokeColor=none;fillColor=none;align=center;verticalAlign=top;spacingLeft=4;spacingRight=4;overflow=hidden;rotatable=0;points=[[0,0.5],[1,0.5]];portConstraint=eastwest;fontSize=14;fontFamily=Architects Daughter;html=1;labelBorderColor=none;labelBackgroundColor=none;" vertex="1" parent="xK8xdHPVtCYg_8-kvttX-81">
          <mxGeometry y="60" width="160" height="26" as="geometry" />
        </mxCell>
        <mxCell id="xK8xdHPVtCYg_8-kvttX-85" value="" style="edgeStyle=orthogonalEdgeStyle;rounded=1;hachureGap=4;orthogonalLoop=1;jettySize=auto;entryX=1;entryY=0.5;entryDx=0;entryDy=0;fontFamily=Architects Daughter;fontSource=https%3A%2F%2Ffonts.googleapis.com%2Fcss%3Ffamily%3DArchitects%2BDaughter;fontSize=14;startArrow=classicThin;startFill=1;endArrow=classicThin;endFill=1;verticalAlign=middle;html=1;labelBorderColor=none;labelBackgroundColor=none;align=center;" edge="1" parent="1" source="xK8xdHPVtCYg_8-kvttX-2" target="xK8xdHPVtCYg_8-kvttX-82">
          <mxGeometry relative="1" as="geometry" />
        </mxCell>
        <mxCell id="xK8xdHPVtCYg_8-kvttX-86" value="Classname" style="swimlane;fontStyle=0;childLayout=stackLayout;horizontal=1;startSize=26;fillColor=none;horizontalStack=0;resizeParent=1;resizeParentMax=0;resizeLast=0;collapsible=1;marginBottom=0;rounded=1;hachureGap=4;fontFamily=Helvetica;fontSize=14;labelBackgroundColor=none;verticalAlign=middle;html=1;labelBorderColor=none;align=center;" vertex="1" parent="1">
          <mxGeometry x="70" y="94" width="140" height="104" as="geometry" />
        </mxCell>
        <mxCell id="xK8xdHPVtCYg_8-kvttX-87" value="+ field: type" style="text;strokeColor=none;fillColor=none;align=center;verticalAlign=middle;spacingLeft=4;spacingRight=4;overflow=hidden;rotatable=0;points=[[0,0.5],[1,0.5]];portConstraint=eastwest;fontSize=14;fontFamily=Helvetica;horizontal=1;html=1;labelBorderColor=none;labelBackgroundColor=none;" vertex="1" parent="xK8xdHPVtCYg_8-kvttX-86">
          <mxGeometry y="26" width="140" height="26" as="geometry" />
        </mxCell>
        <mxCell id="xK8xdHPVtCYg_8-kvttX-88" value="+ field: type" style="text;strokeColor=none;fillColor=none;align=center;verticalAlign=middle;spacingLeft=4;spacingRight=4;overflow=hidden;rotatable=0;points=[[0,0.5],[1,0.5]];portConstraint=eastwest;fontSize=14;fontFamily=Helvetica;horizontal=1;html=1;labelBorderColor=none;labelBackgroundColor=none;" vertex="1" parent="xK8xdHPVtCYg_8-kvttX-86">
          <mxGeometry y="52" width="140" height="26" as="geometry" />
        </mxCell>
        <mxCell id="xK8xdHPVtCYg_8-kvttX-89" value="+ field: type" style="text;strokeColor=none;fillColor=none;align=center;verticalAlign=middle;spacingLeft=4;spacingRight=4;overflow=hidden;rotatable=0;points=[[0,0.5],[1,0.5]];portConstraint=eastwest;fontSize=14;fontFamily=Helvetica;horizontal=1;html=1;labelBorderColor=none;labelBackgroundColor=none;" vertex="1" parent="xK8xdHPVtCYg_8-kvttX-86">
          <mxGeometry y="78" width="140" height="26" as="geometry" />
        </mxCell>
        <mxCell id="xK8xdHPVtCYg_8-kvttX-90" value="Classname" style="swimlane;fontStyle=1;align=center;verticalAlign=middle;childLayout=stackLayout;horizontal=1;startSize=26;horizontalStack=0;resizeParent=1;resizeParentMax=0;resizeLast=0;collapsible=1;marginBottom=0;labelBackgroundColor=none;fontSize=14;html=1;labelBorderColor=none;" vertex="1" parent="1">
          <mxGeometry x="60" y="260" width="160" height="86" as="geometry" />
        </mxCell>
        <mxCell id="xK8xdHPVtCYg_8-kvttX-91" value="+ field: type" style="text;strokeColor=none;fillColor=none;align=center;verticalAlign=middle;spacingLeft=4;spacingRight=4;overflow=hidden;rotatable=0;points=[[0,0.5],[1,0.5]];portConstraint=eastwest;labelBackgroundColor=none;fontSize=14;html=1;labelBorderColor=none;" vertex="1" parent="xK8xdHPVtCYg_8-kvttX-90">
          <mxGeometry y="26" width="160" height="26" as="geometry" />
        </mxCell>
        <mxCell id="xK8xdHPVtCYg_8-kvttX-92" value="" style="line;strokeWidth=1;fillColor=none;align=center;verticalAlign=middle;spacingTop=-1;spacingLeft=3;spacingRight=3;rotatable=0;labelPosition=right;points=[];portConstraint=eastwest;strokeColor=inherit;labelBackgroundColor=none;fontSize=14;html=1;labelBorderColor=none;" vertex="1" parent="xK8xdHPVtCYg_8-kvttX-90">
          <mxGeometry y="52" width="160" height="8" as="geometry" />
        </mxCell>
        <mxCell id="xK8xdHPVtCYg_8-kvttX-93" value="+ method(type): type" style="text;strokeColor=none;fillColor=none;align=center;verticalAlign=middle;spacingLeft=4;spacingRight=4;overflow=hidden;rotatable=0;points=[[0,0.5],[1,0.5]];portConstraint=eastwest;labelBackgroundColor=none;fontSize=14;html=1;labelBorderColor=none;" vertex="1" parent="xK8xdHPVtCYg_8-kvttX-90">
          <mxGeometry y="60" width="160" height="26" as="geometry" />
        </mxCell>
      </root>
    </mxGraphModel>
  </diagram>
</mxfile>
